<svg width="64" height="64" viewBox="0 0 64 64" fill="none" xmlns="http://www.w3.org/2000/svg">
<path d="M13.3333 20H17.3333V24C17.3333 24.8 17.8667 25.3333 18.6667 25.3333C19.4667 25.3333 20 24.8 20 24V20H24C24.8 20 25.3333 19.4667 25.3333 18.6667C25.3333 17.8667 24.8 17.3333 24 17.3333H20V13.3333C20 12.5333 19.4667 12 18.6667 12C17.8667 12 17.3333 12.5333 17.3333 13.3333V17.3333H13.3333C12.5333 17.3333 12 17.8667 12 18.6667C12 19.4667 12.5333 20 13.3333 20Z" fill="black"/>
<path d="M58.6667 4H5.33333C4.53333 4 4 4.53333 4 5.33333V58.6667C4 59.4667 4.53333 60 5.33333 60H58.6667C59.4667 60 60 59.4667 60 58.6667V5.33333C60 4.53333 59.4667 4 58.6667 4ZM30.6667 57.3333H6.66667V33.3333H30.6667V57.3333ZM30.6667 30.6667H6.66667V6.66667H30.6667V30.6667ZM57.3333 57.3333H33.3333V33.3333H57.3333V57.3333ZM57.3333 30.6667H33.3333V6.66667H57.3333V30.6667Z" fill="black"/>
<path d="M40.0001 20.0002H50.6668C51.4668 20.0002 52.0001 19.4668 52.0001 18.6668C52.0001 17.8668 51.4668 17.3335 50.6668 17.3335H40.0001C39.2001 17.3335 38.6668 17.8668 38.6668 18.6668C38.6668 19.4668 39.2001 20.0002 40.0001 20.0002ZM14.0001 50.0002C14.2668 50.2668 14.6668 50.4002 14.9334 50.4002C15.2001 50.4002 15.6001 50.2668 15.8668 50.0002L18.6668 47.2002L21.4668 50.0002C21.7334 50.2668 22.1334 50.4002 22.4001 50.4002C22.6668 50.4002 23.0668 50.2668 23.3334 50.0002C23.8668 49.4668 23.8668 48.6668 23.3334 48.1335L20.5334 45.3335L23.3334 42.5335C23.8668 42.0002 23.8668 41.2002 23.3334 40.6668C22.8001 40.1335 22.0001 40.1335 21.4668 40.6668L18.6668 43.4668L15.8668 40.6668C15.3334 40.1335 14.5334 40.1335 14.0001 40.6668C13.4668 41.2002 13.4668 42.0002 14.0001 42.5335L16.8001 45.3335L14.0001 48.1335C13.4668 48.6668 13.4668 49.4668 14.0001 50.0002ZM40.0001 44.0002H50.6668C51.4668 44.0002 52.0001 43.4668 52.0001 42.6668C52.0001 41.8668 51.4668 41.3335 50.6668 41.3335H40.0001C39.2001 41.3335 38.6668 41.8668 38.6668 42.6668C38.6668 43.4668 39.2001 44.0002 40.0001 44.0002ZM40.0001 49.3335H50.6668C51.4668 49.3335 52.0001 48.8002 52.0001 48.0002C52.0001 47.2002 51.4668 46.6668 50.6668 46.6668H40.0001C39.2001 46.6668 38.6668 47.2002 38.6668 48.0002C38.6668 48.8002 39.2001 49.3335 40.0001 49.3335Z" fill="black"/>
</svg>
