<svg width="48" height="48" viewBox="0 0 48 48" fill="none" xmlns="http://www.w3.org/2000/svg">
<g clip-path="url(#clip0_321_8)">
<path d="M23.997 0C10.746 0 1.38494e-05 10.788 1.38494e-05 24.096C-0.00540001 29.1466 1.57656 34.0713 4.52231 38.1739C7.46806 42.2765 11.6286 45.3497 16.416 46.959C17.616 47.181 18.054 46.437 18.054 45.798C18.054 45.225 18.033 43.71 18.021 41.7C11.346 43.155 9.93601 38.469 9.93601 38.469C8.84701 35.685 7.27201 34.944 7.27201 34.944C5.09101 33.45 7.43401 33.48 7.43401 33.48C9.84301 33.651 11.109 35.964 11.109 35.964C13.251 39.645 16.728 38.583 18.096 37.965C18.312 36.408 18.933 35.346 19.62 34.743C14.292 34.134 8.68801 32.067 8.68801 22.836C8.68801 20.205 9.62401 18.054 11.16 16.368C10.911 15.759 10.089 13.308 11.394 9.993C11.394 9.993 13.41 9.345 17.994 12.462C19.9523 11.9268 21.973 11.6545 24.003 11.652C26.0332 11.656 28.0538 11.9294 30.012 12.465C34.593 9.348 36.606 9.996 36.606 9.996C37.914 13.314 37.092 15.762 36.846 16.371C38.385 18.057 39.312 20.208 39.312 22.839C39.312 32.094 33.702 34.131 28.356 34.728C29.217 35.472 29.985 36.942 29.985 39.189C29.985 42.411 29.955 45.009 29.955 45.798C29.955 46.443 30.387 47.193 31.605 46.956C36.3877 45.3429 40.5431 42.2685 43.4848 38.1669C46.4265 34.0653 48.0058 29.1434 48 24.096C48 10.788 37.254 0 23.997 0Z" fill="white"/>
</g>
<defs>
<clipPath id="clip0_321_8">
<rect width="48" height="48" fill="white"/>
</clipPath>
</defs>
</svg>
