<svg width="64" height="64" viewBox="0 0 64 64" fill="none" xmlns="http://www.w3.org/2000/svg">
<g clip-path="url(#clip0_317_6)">
<path d="M56.17 22.5701C58.0052 27.2652 58.4321 32.3933 57.3984 37.3271C56.3648 42.261 53.9154 46.7865 50.35 50.3501C46.7815 53.9079 42.2561 56.352 37.3242 57.3853C32.3923 58.4185 27.2664 57.9963 22.57 56.1701C29.0542 51.5494 35.1268 46.3768 40.72 40.7101C46.3791 35.1162 51.548 29.0473 56.17 22.5701V22.5701ZM54.77 19.5401C50.0226 26.4137 44.6388 32.8253 38.69 38.6901C32.8364 44.6442 26.4273 50.0253 19.55 54.7601C17.3804 53.5832 15.393 52.0977 13.65 50.3501C11.7467 48.4448 10.151 46.2554 8.91998 43.8601C8.87886 43.7478 8.82519 43.6404 8.75998 43.5401C6.37704 38.6719 5.57507 33.1808 6.46623 27.8344C7.35739 22.4881 9.89711 17.5539 13.7303 13.7218C17.5634 9.88978 22.4983 7.35148 27.8449 6.46186C33.1915 5.57223 38.6825 6.37578 43.55 8.76013C43.6513 8.82636 43.7584 8.88326 43.87 8.93013C46.2666 10.154 48.4539 11.7505 50.35 13.6601C52.0925 15.4025 53.5805 17.382 54.77 19.5401V19.5401ZM60.55 3.45013C59.23 2.13013 54.62 2.94013 47.17 7.50013C46.242 6.92014 45.2803 6.39588 44.29 5.93013C50.78 1.76013 59 -2.18987 62.58 1.42013C66.16 5.03013 62.24 13.2301 58.08 19.7201C57.6121 18.7277 57.0879 17.7628 56.51 16.8301C61.06 9.38013 61.88 4.78013 60.55 3.45013ZM5.92999 44.2901C6.39225 45.279 6.91663 46.2375 7.49998 47.1601C2.93998 54.6201 2.11998 59.2301 3.49998 60.5501C4.87998 61.8701 9.43998 61.0601 16.89 56.5501C17.8238 57.1319 18.7923 57.6562 19.79 58.1201C15 61.0801 9.42999 64.0001 5.32999 64.0001C4.6153 64.0398 3.90002 63.9335 3.22779 63.6876C2.55555 63.4417 1.94044 63.0615 1.41998 62.5701C-2.20002 59.0001 1.75998 50.7801 5.92999 44.2901Z" fill="black"/>
</g>
<defs>
<clipPath id="clip0_317_6">
<rect width="64" height="64" fill="white" transform="matrix(-1 0 0 1 64 0)"/>
</clipPath>
</defs>
</svg>
