<svg width="24" height="24" viewBox="0 0 24 24" fill="none" xmlns="http://www.w3.org/2000/svg">
<path d="M6.99106 18.1074C6.91963 18.1877 6.83035 18.1743 6.7232 18.0672C6.60713 17.969 6.58927 17.8841 6.66963 17.8127C6.74106 17.7324 6.83035 17.7457 6.93749 17.8529C7.04463 17.9511 7.06249 18.0359 6.99106 18.1074ZM6.42856 17.2904C6.50892 17.3975 6.50892 17.4824 6.42856 17.5449C6.35713 17.5984 6.28124 17.5672 6.20088 17.4511C6.12052 17.335 6.12052 17.2547 6.20088 17.21C6.28124 17.1475 6.35713 17.1743 6.42856 17.2904ZM5.6116 16.4868C5.56695 16.5493 5.50892 16.5582 5.43749 16.5136C5.3482 16.469 5.31695 16.4154 5.34374 16.3529C5.37052 16.3082 5.42856 16.2993 5.51785 16.3261C5.60713 16.3707 5.63838 16.4243 5.6116 16.4868ZM6.02677 16.9422C5.9732 17.0047 5.90177 16.9913 5.81249 16.902C5.73213 16.8038 5.7232 16.7323 5.7857 16.6877C5.83927 16.6341 5.9107 16.6475 5.99999 16.7279C6.08035 16.8261 6.08927 16.8975 6.02677 16.9422ZM7.75445 18.4422C7.71874 18.5493 7.63392 18.5761 7.49999 18.5225C7.3482 18.4868 7.29017 18.4199 7.32588 18.3216C7.3616 18.2234 7.44642 18.1922 7.58035 18.2279C7.7232 18.2725 7.78124 18.344 7.75445 18.4422ZM8.5982 18.5091C8.5982 18.6074 8.52677 18.6565 8.38392 18.6565C8.23213 18.6743 8.15624 18.6252 8.15624 18.5091C8.15624 18.4109 8.22767 18.3618 8.37052 18.3618C8.52231 18.344 8.5982 18.3931 8.5982 18.5091ZM9.37499 18.3752C9.39285 18.4645 9.33035 18.527 9.18749 18.5627C9.04463 18.5984 8.96427 18.5627 8.94642 18.4556C8.92856 18.3484 8.99106 18.2815 9.13392 18.2547C9.27677 18.2368 9.35713 18.277 9.37499 18.3752ZM22.2857 5.57164V18.4288C22.2857 19.4913 22.2857 21.0646 22.2857 22.2725C21.1455 22.2725 19.4911 22.2859 18.4286 22.2859H15.4286C15.2857 22.2859 15.1763 22.2815 15.1004 22.2725C15.0245 22.2636 14.9375 22.2413 14.8393 22.2056C14.7411 22.1699 14.6696 22.1051 14.625 22.0114C14.5803 21.9176 14.558 21.7949 14.558 21.6431V18.4422C14.558 17.5761 14.3259 16.9422 13.8616 16.5404C14.3705 16.4868 14.8281 16.4065 15.2344 16.2993C15.6406 16.1922 16.0603 16.0181 16.4933 15.777C16.9263 15.5359 17.2879 15.239 17.5781 14.8864C17.8683 14.5337 18.1049 14.0649 18.2879 13.4801C18.471 12.8953 18.5625 12.2234 18.5625 11.4645C18.5625 10.3841 18.2098 9.46449 17.5044 8.70557C17.8348 7.89307 17.7991 6.98235 17.3973 5.97342C17.1473 5.89307 16.7857 5.94217 16.3125 6.12074C15.8393 6.29932 15.4286 6.49574 15.0803 6.71003L14.5714 7.03146C13.7411 6.79932 12.8839 6.68324 12 6.68324C11.1161 6.68324 10.2589 6.79932 9.42856 7.03146C9.2857 6.93324 9.09597 6.81271 8.85936 6.66985C8.62276 6.52699 8.24999 6.35512 7.74106 6.15423C7.23213 5.95333 6.8482 5.89307 6.58927 5.97342C6.19642 6.98235 6.16517 7.89307 6.49552 8.70557C5.79017 9.46449 5.43749 10.3841 5.43749 11.4645C5.43749 12.2234 5.52901 12.8931 5.71204 13.4734C5.89508 14.0538 6.12945 14.5225 6.41517 14.8797C6.70088 15.2368 7.06026 15.5359 7.49329 15.777C7.92633 16.0181 8.34597 16.1922 8.75222 16.2993C9.15847 16.4065 9.61606 16.4868 10.125 16.5404C9.76785 16.8618 9.5491 17.3216 9.46874 17.9199C9.28124 18.0091 9.08035 18.0761 8.86606 18.1207C8.65177 18.1654 8.39731 18.1877 8.10267 18.1877C7.80802 18.1877 7.51561 18.0917 7.22543 17.8998C6.93526 17.7078 6.68749 17.4288 6.48213 17.0627C6.31249 16.777 6.09597 16.5449 5.83258 16.3663C5.56918 16.1877 5.3482 16.0806 5.16963 16.0449L4.90177 16.0047C4.71427 16.0047 4.58481 16.0248 4.51338 16.0649C4.44195 16.1051 4.41963 16.1565 4.44642 16.219C4.4732 16.2815 4.51338 16.344 4.56695 16.4065C4.62052 16.469 4.67856 16.5225 4.74106 16.5672L4.83481 16.6341C5.03124 16.7234 5.22543 16.8931 5.4174 17.1431C5.60936 17.3931 5.74999 17.6207 5.83927 17.8261L5.9732 18.1341C6.08927 18.4734 6.2857 18.748 6.56249 18.9578C6.83927 19.1676 7.13838 19.3016 7.45981 19.3596C7.78124 19.4176 8.09151 19.4489 8.39061 19.4533C8.68972 19.4578 8.93749 19.4422 9.13392 19.4065L9.44195 19.3529C9.44195 19.6922 9.44419 20.152 9.44865 20.7324C9.45312 21.3127 9.45535 21.6163 9.45535 21.6431C9.45535 21.8395 9.40624 21.989 9.30802 22.0917C9.20981 22.1944 9.1116 22.2524 9.01338 22.2658C8.91517 22.2792 8.76785 22.2859 8.57142 22.2859H5.57142C4.50892 22.2859 2.75402 22.2859 1.71424 22.2859C1.71434 21 1.71427 19.4913 1.71427 18.4288V5.57164C1.71427 4.50914 1.71433 3 1.71413 1.71494C2.99994 1.71449 4.50892 1.71449 5.57142 1.71449H18.4286C19.4911 1.71449 20.9999 1.71418 22.2857 1.71449C22.2857 2.66695 22.2857 4.50914 22.2857 5.57164Z" fill="black"/>
</svg>
