<svg width="24" height="24" viewBox="0 0 24 24" fill="none" xmlns="http://www.w3.org/2000/svg">
<path d="M20.4701 2.00021H3.53006C3.33964 1.99756 3 2.00021 3 2.00021L2.06023 2.00016L2.06026 3.00012C2.06026 3.00012 2.06267 3.23979 2.06006 3.43021V20.5702C2.06267 20.7606 2.05994 20.7932 2.06011 21.0001C2.06021 21.2069 2.06021 22.0002 2.06021 22.0002L3.00009 22.0001C3.00009 22.0001 3.33964 22.0029 3.53006 22.0002H20.4701C20.6605 22.0029 21 22.0002 21 22.0002H21.9401V21.0001C21.9401 20.8031 21.9375 20.7606 21.9401 20.5702V3.43021C21.9375 3.23979 21.9401 3.00001 21.9401 3.00001V2.00029L21 2.00018C21 2.00018 20.6605 1.99756 20.4701 2.00021ZM8.09006 18.7402H5.09006V9.74021H8.09006V18.7402ZM6.59006 8.48021C6.17632 8.48021 5.77953 8.31585 5.48697 8.02329C5.19442 7.73074 5.03006 7.33395 5.03006 6.92021C5.03006 6.50647 5.19442 6.10968 5.48697 5.81712C5.77953 5.52456 6.17632 5.36021 6.59006 5.36021C6.80975 5.33529 7.03223 5.35706 7.24293 5.42409C7.45363 5.49112 7.6478 5.6019 7.81271 5.74917C7.97763 5.89644 8.10958 6.07689 8.19993 6.27869C8.29027 6.48049 8.33698 6.6991 8.33698 6.92021C8.33698 7.14131 8.29027 7.35992 8.19993 7.56173C8.10958 7.76353 7.97763 7.94397 7.81271 8.09125C7.6478 8.23852 7.45363 8.34929 7.24293 8.41632C7.03223 8.48335 6.80975 8.50512 6.59006 8.48021ZM18.9101 18.7402H15.9101V13.9102C15.9101 12.7002 15.4801 11.9102 14.3901 11.9102C14.0527 11.9127 13.7242 12.0185 13.4489 12.2134C13.1735 12.4083 12.9645 12.6829 12.8501 13.0002C12.7718 13.2352 12.7379 13.4828 12.7501 13.7302V18.7302H9.75006C9.75006 18.7302 9.75006 10.5502 9.75006 9.73021H12.7501V11.0002C13.0226 10.5273 13.419 10.1377 13.8965 9.87341C14.374 9.60909 14.9146 9.48006 15.4601 9.50021C17.4601 9.50021 18.9101 10.7902 18.9101 13.5602V18.7402Z" fill="black"/>
</svg>
