<svg width="24" height="24" viewBox="0 0 24 24" fill="none" xmlns="http://www.w3.org/2000/svg">
<path d="M21.9981 2H3.32932C2.5959 2 2 2 2 2L2 20.6706C2 21.404 2 22 2 22H20.6688C21.4022 22 21.9981 22 21.9981 22V3.32944C22.0023 2.59596 21.9981 2 21.9981 2ZM17.931 9.09315C17.9268 9.09731 17.9227 9.09731 17.9227 9.10148C17.9268 9.16816 17.931 9.23901 17.931 9.30569C17.9352 9.38071 17.9352 9.45155 17.9352 9.52657C17.9352 14.0525 14.2639 17.7241 9.7384 17.7241C8.18405 17.7241 6.72971 17.2907 5.4879 16.5364C5.4879 16.5364 7.83401 16.7364 9.4467 15.2361C9.4467 15.2361 7.52981 14.986 6.80889 13.2065C6.80889 13.2065 7.64232 13.344 8.14238 13.2065C8.14238 13.2065 5.83794 12.2605 5.89212 10.3434C5.89212 10.3434 6.69638 10.6768 7.08809 10.6768C7.08809 10.6768 5.03368 9.25985 6.25466 6.6218C6.25466 6.6218 7.83818 9.6766 12.172 9.70577L12.1762 9.70161C12.1428 9.53074 12.1303 9.3557 12.1303 9.1765C12.1303 7.57199 13.4305 6.27172 15.0348 6.27172C15.8558 6.27172 16.5975 6.61346 17.1226 7.15941L17.1434 7.14691C17.1434 7.14691 17.3143 7.10106 17.5518 7.03438C17.9518 6.91769 18.5311 6.74265 18.7561 6.6218C18.7561 6.6218 18.5227 7.50948 17.7977 8.01792C17.7768 8.03459 17.7518 8.05126 17.7268 8.06376C17.7268 8.06376 17.756 8.06376 17.806 8.0596C18.0269 8.04709 18.6686 7.98875 19.2562 7.67202C19.2353 7.70536 18.6269 8.51803 17.931 9.09315Z" fill="#020202"/>
</svg>
