<svg width="24" height="26" viewBox="0 0 24 26" fill="none" xmlns="http://www.w3.org/2000/svg">
<g clip-path="url(#clip0_323_22)">
<path d="M23.9596 7.64734C23.9594 7.21134 23.8626 6.82607 23.6667 6.49542C23.4743 6.17027 23.1862 5.89775 22.7998 5.68228C19.61 3.91129 16.417 2.14573 13.2282 0.372939C12.3685 -0.104944 11.535 -0.0875222 10.6817 0.397221C9.41203 1.1182 3.05531 4.62487 1.16109 5.68128C0.381 6.11611 0.00140625 6.78157 0.00121875 7.64652C0 11.2081 0.00121875 14.7695 0 18.3312C0.0001875 18.7576 0.0929062 19.1354 0.280125 19.4611C0.472594 19.7961 0.764719 20.0761 1.16006 20.2964C3.05437 21.3528 9.41194 24.8592 10.6813 25.5804C11.535 26.0654 12.3685 26.0827 13.2285 25.6047C16.4174 23.8318 19.6105 22.0663 22.8008 20.2953C23.1962 20.0751 23.4883 19.7949 23.6808 19.4602C23.8677 19.1345 23.9606 18.7567 23.9608 18.3302C23.9608 18.3302 23.9608 11.209 23.9596 7.64734" fill="white"/>
<path d="M12.017 12.9546L0.280029 19.4615C0.472498 19.7965 0.764623 20.0765 1.15997 20.2969C3.05428 21.3533 9.41184 24.8597 10.6812 25.5808C11.5349 26.0659 12.3684 26.0832 13.2284 25.6051C16.4173 23.8322 19.6104 22.0668 22.8007 20.2958C23.1961 20.0755 23.4882 19.7953 23.6807 19.4606L12.017 12.9546" fill="white"/>
<path d="M8.54077 14.882C9.22374 16.03 10.5076 16.8044 11.9805 16.8044C13.4624 16.8044 14.7536 16.0202 15.4331 14.8599L12.0171 12.9546L8.54077 14.882" fill="white"/>
<path d="M23.9596 7.64753C23.9594 7.21153 23.8626 6.82626 23.6667 6.49561L12.0171 12.9543L23.6808 19.4604C23.8677 19.1347 23.9607 18.7569 23.9608 18.3304C23.9608 18.3304 23.9608 11.2092 23.9596 7.64753" fill="white"/>
<path d="M23.3183 13.4196H22.4069V14.2974H21.4952V13.4196H20.5839V12.5421H21.4952V11.6646H22.4069V12.5421H23.3183V13.4196ZM19.9925 13.4196H19.0812V14.2974H18.1697V13.4196H17.2583V12.5421H18.1697V11.6646H19.0812V12.5421H19.9925V13.4196Z" fill="black"/>
<path d="M15.4331 14.8597C14.7536 16.0201 13.4624 16.8042 11.9805 16.8042C10.5077 16.8042 9.22375 16.0299 8.54078 14.8819C8.19769 14.3058 8.01751 13.6532 8.01822 12.9891C8.01822 10.8821 9.79225 9.17408 11.9805 9.17408C13.4438 9.17408 14.721 9.93874 15.4073 11.075L18.8705 9.15485C17.494 6.8669 14.924 5.32764 11.9805 5.32764C7.58584 5.32764 4.02344 8.75785 4.02344 12.9891C4.02344 14.3773 4.40697 15.679 5.07728 16.8019C6.45034 19.1019 9.02763 20.6507 11.9805 20.6507C14.9388 20.6507 17.5201 19.0957 18.8912 16.7889L15.4331 14.8597Z" fill="black"/>
</g>
<defs>
<clipPath id="clip0_323_22">
<rect width="24" height="26" fill="white"/>
</clipPath>
</defs>
</svg>
