<svg width="21" height="24" viewBox="0 0 21 24" fill="none" xmlns="http://www.w3.org/2000/svg">
<g clip-path="url(#clip0_323_12)">
<path d="M19.366 21.423L21.279 0H0L0.025 0.278L1.91 21.426L1.926 21.602L10.559 24H10.695L19.348 21.6L19.364 21.424L19.366 21.423ZM10.658 4.679H16.841L16.655 6.839L10.555 9.551L10.657 10.039H16.381L15.722 17.59L10.636 19L5.552 17.592L5.232 13.976H7.325L7.493 15.809L7.509 15.987L10.594 16.807H10.727L13.778 15.959L13.793 15.782L14.081 12.396L14.104 12.12H5.057L4.867 9.947L11.176 7.246L11.076 6.756H4.596L4.411 4.676H10.651L10.658 4.679Z" fill="white"/>
</g>
<defs>
<clipPath id="clip0_323_12">
<rect width="21" height="24" fill="white"/>
</clipPath>
</defs>
</svg>
