<svg width="18" height="24" viewBox="0 0 18 24" fill="none" xmlns="http://www.w3.org/2000/svg">
<g clip-path="url(#clip0_323_18)">
<path d="M5.70096 18.5609C5.70096 18.5609 4.78296 19.0949 6.35396 19.2749C6.92896 19.3599 7.59296 19.4089 8.26696 19.4089C9.35096 19.4089 10.405 19.2839 11.416 19.0459L11.323 19.0639C11.697 19.2919 12.132 19.5089 12.585 19.6879L12.644 19.7079C7.94596 21.7219 2.01096 19.5909 5.70196 18.5599L5.70096 18.5609ZM5.12696 15.9329C5.12696 15.9329 4.09796 16.6949 5.66896 16.8569C6.35596 16.9429 7.15096 16.9929 7.95796 16.9929C9.41896 16.9929 10.842 16.8309 12.21 16.5249L12.081 16.5489C12.356 16.8069 12.685 17.0119 13.049 17.1449L13.069 17.1509C7.38896 18.8119 1.06096 17.2819 5.12696 15.9329V15.9329ZM9.96596 11.4749C11.124 12.8079 9.66196 14.0069 9.66196 14.0069C9.66196 14.0069 12.601 12.4869 11.252 10.5889C9.99096 8.81688 9.02396 7.93588 14.258 4.90088C14.258 4.90088 6.04196 6.95288 9.96596 11.4749V11.4749Z" fill="white"/>
<path d="M16.1799 20.505C16.1799 20.505 16.8579 21.065 15.4329 21.497C12.7209 22.319 4.14591 22.567 1.76291 21.53C0.906907 21.157 2.51291 20.64 3.01691 20.532C3.24891 20.473 3.51591 20.439 3.79091 20.439H3.84791H3.84491C2.89291 19.768 -2.31009 21.757 1.20491 22.325C10.7839 23.879 18.6669 21.625 16.1829 20.505H16.1799ZM6.14191 13.21C6.14191 13.21 1.77991 14.246 4.59691 14.622C5.35591 14.685 6.24091 14.72 7.13291 14.72C8.27191 14.72 9.39691 14.662 10.5049 14.549L10.3659 14.561C12.1709 14.409 13.9839 14.081 13.9839 14.081C13.5589 14.267 13.1989 14.463 12.8579 14.686L12.8869 14.668C8.45691 15.833 -0.0990932 15.291 2.36391 14.099C3.44991 13.536 4.73591 13.206 6.09791 13.206H6.14391H6.14191V13.21ZM13.9659 17.585C18.4679 15.245 16.3869 12.997 14.9329 13.299C14.7339 13.336 14.5609 13.384 14.3939 13.445L14.4169 13.438C14.5119 13.304 14.6429 13.201 14.7959 13.143L14.8019 13.141C17.6759 12.131 19.8879 16.122 13.8739 17.701C13.9109 17.668 13.9409 17.629 13.9629 17.586L13.9639 17.584L13.9659 17.585ZM11.2519 2.34375e-05C11.2519 2.34375e-05 13.7459 2.49402 8.88591 6.33002C4.98991 9.40702 7.99691 11.161 8.88591 13.166C6.61191 11.114 4.94291 9.30802 6.06191 7.62602C7.70591 5.15802 12.2589 3.96202 11.2519 -0.000976562V2.34375e-05Z" fill="white"/>
<path d="M6.58491 23.9251C10.9049 24.2021 17.5449 23.7711 17.7049 21.7271C17.7049 21.7271 17.4029 22.5021 14.1329 23.1181C12.3269 23.4441 10.2479 23.6301 8.12491 23.6301C6.38591 23.6301 4.67691 23.5051 3.00391 23.2641L3.19491 23.2871C3.19491 23.2871 3.74791 23.7451 6.58791 23.9271L6.58491 23.9251Z" fill="white"/>
</g>
<defs>
<clipPath id="clip0_323_18">
<rect width="18" height="24" fill="white"/>
</clipPath>
</defs>
</svg>
