<svg width="24" height="24" viewBox="0 0 24 24" fill="none" xmlns="http://www.w3.org/2000/svg">
<g clip-path="url(#clip0_323_29)">
<path d="M0 0H24V24H0V0Z" fill="white"/>
<path d="M19.7841 18.6288C19.5291 17.6678 17.5331 17.4438 16.1681 16.4238C14.7881 15.4938 14.4591 13.2438 15.5991 11.9528C15.9891 11.4728 16.6331 11.1128 17.3091 10.9478L18.0141 10.8588C19.3791 10.8278 20.2181 11.1878 20.8481 11.8928C21.0301 12.0718 21.1641 12.2528 21.4341 12.6728C20.7131 13.1218 20.7131 13.1218 19.6791 13.7978C19.4531 13.3178 19.0931 13.0178 18.7031 12.8978C18.1031 12.7178 17.3381 12.9118 17.1881 13.5578C17.1291 13.7528 17.1431 13.9328 17.2341 14.2628C17.4771 14.8178 18.2951 15.0578 19.0311 15.4028C21.1461 16.2608 21.8591 17.1808 22.0341 18.2758L21.9881 18.2088C22.1541 19.1538 21.9431 19.7688 21.9141 19.8588C21.1331 22.5288 16.7831 22.6188 15.0431 20.8628C14.6831 20.4428 14.4431 20.2338 14.2331 19.7538L16.0631 18.7028C16.5581 19.4528 17.0071 19.8588 17.8181 20.0388C18.9141 20.1738 20.0241 19.7988 19.7841 18.6288V18.6288ZM8.13311 18.9758C8.15011 18.9758 8.19711 19.0668 8.26011 19.1718C8.49311 19.5608 8.69411 19.8308 9.09011 20.0268C9.47611 20.1478 10.3261 20.2358 10.6561 19.5468C10.8571 19.1988 10.7941 18.0678 10.7941 16.8358C10.7941 14.8948 10.8031 12.9688 10.8031 11.0308H13.0511L13.0471 11.0868C13.0471 13.1568 13.0591 15.2118 13.0471 17.2658C13.0521 18.5418 13.1601 19.6818 12.6501 20.6118C12.2971 21.3318 11.6221 21.7968 10.8391 22.0228C9.63611 22.2928 8.48711 22.1278 7.63211 21.6178C7.05811 21.2728 6.61311 20.7308 6.30811 20.1008L8.13311 18.9758V18.9758Z" fill="black"/>
</g>
<defs>
<clipPath id="clip0_323_29">
<rect width="24" height="24" fill="white"/>
</clipPath>
</defs>
</svg>
