<svg width="24" height="24" viewBox="0 0 24 24" fill="none" xmlns="http://www.w3.org/2000/svg">
<path d="M12 5.60117C11.965 5.60117 11.924 5.60117 11.884 5.60117C10.274 5.60117 8.704 5.77617 7.194 6.10817L7.338 6.08117C5.896 6.38417 4.62 6.83217 3.428 7.42417L3.522 7.38217C2.511 7.86917 1.655 8.52117 0.952 9.31217L0.945 9.32017C0.374 9.94417 0.018 10.7732 0 11.6842V11.6882C0.019 12.6022 0.374 13.4292 0.946 14.0552L0.944 14.0522C1.654 14.8512 2.51 15.5032 3.473 15.9692L3.521 15.9902C4.619 16.5392 5.895 16.9882 7.231 17.2722L7.337 17.2912C8.703 17.5962 10.273 17.7712 11.883 17.7712H12.006H12H12.116C13.726 17.7712 15.296 17.5962 16.806 17.2642L16.662 17.2912C18.104 16.9882 19.38 16.5402 20.572 15.9482L20.478 15.9902C21.489 15.5032 22.345 14.8512 23.048 14.0602L23.055 14.0522C23.626 13.4282 23.982 12.5992 24 11.6882V11.6842C23.982 10.7692 23.626 9.94017 23.053 9.31317L23.055 9.31617C22.345 8.51717 21.489 7.86517 20.526 7.39917L20.478 7.37817C19.38 6.82917 18.104 6.38017 16.768 6.09617L16.662 6.07717C15.296 5.77217 13.726 5.59717 12.116 5.59717C12.075 5.59717 12.034 5.59717 11.993 5.59717H11.999L12 5.60117ZM8.88 12.8652C8.749 12.9842 8.6 13.0862 8.438 13.1662L8.427 13.1712C8.286 13.2392 8.119 13.3022 7.945 13.3502L7.924 13.3552C7.752 13.4172 7.553 13.4542 7.345 13.4542C7.337 13.4542 7.329 13.4542 7.321 13.4542H7.322H5.35L5.03 15.4172H3.583L4.863 8.74217H7.636C7.654 8.74217 7.676 8.74117 7.698 8.74117C8.058 8.74117 8.404 8.80417 8.724 8.92017L8.703 8.91317C8.998 9.02117 9.249 9.18917 9.451 9.40217L9.452 9.40317C9.627 9.62617 9.752 9.89617 9.806 10.1922L9.808 10.2032C9.833 10.3492 9.848 10.5172 9.848 10.6892C9.848 10.8852 9.829 11.0762 9.793 11.2622L9.796 11.2432C9.76 11.4222 9.713 11.5782 9.654 11.7282L9.661 11.7092C9.60367 11.8565 9.54233 11.9955 9.477 12.1262C9.39567 12.2568 9.30567 12.3878 9.207 12.5192C9.111 12.6482 9.006 12.7612 8.89 12.8622L8.887 12.8642L8.88 12.8652ZM13.052 13.4542L13.617 10.6322C13.641 10.5252 13.655 10.4032 13.655 10.2772C13.655 10.2512 13.654 10.2252 13.653 10.1992V10.2032C13.652 10.0942 13.61 9.99517 13.542 9.92017C13.473 9.86017 13.391 9.81417 13.301 9.78617L13.296 9.78517C13.171 9.74517 13.027 9.72317 12.878 9.72317C12.861 9.72317 12.844 9.72317 12.827 9.72417H12.829H11.703L10.967 13.4542H9.544L10.824 6.97417H12.247L11.904 8.74117H13.184C13.206 8.74117 13.231 8.74017 13.257 8.74017C13.588 8.74017 13.91 8.78117 14.218 8.85717L14.191 8.85117C14.44 8.90617 14.657 9.02317 14.832 9.18317L14.831 9.18217C14.987 9.30517 15.098 9.48017 15.137 9.68017L15.138 9.68517C15.152 9.77417 15.16 9.87617 15.16 9.98017C15.16 10.1502 15.139 10.3152 15.098 10.4722L15.101 10.4582L14.512 13.4522L13.052 13.4542ZM20.954 11.2702C20.914 11.4512 20.872 11.5982 20.822 11.7432L20.831 11.7122C20.777 11.8712 20.711 12.0092 20.63 12.1372L20.635 12.1292C20.566 12.2842 20.484 12.4172 20.387 12.5372L20.39 12.5332C20.292 12.6552 20.187 12.7632 20.073 12.8622L20.07 12.8652C19.939 12.9842 19.79 13.0862 19.628 13.1662L19.617 13.1712C19.476 13.2392 19.309 13.3022 19.135 13.3502L19.114 13.3552C18.942 13.4172 18.743 13.4542 18.535 13.4542C18.527 13.4542 18.519 13.4542 18.511 13.4542H18.512H16.54L16.197 15.4132H14.774L16.054 8.73817H18.803C18.825 8.73717 18.85 8.73717 18.876 8.73717C19.241 8.73717 19.592 8.80017 19.917 8.91717L19.895 8.91017C20.182 9.01417 20.424 9.18217 20.613 9.39817L20.615 9.40017C20.805 9.62217 20.94 9.89717 20.993 10.1992L20.995 10.2092C21.017 10.3402 21.03 10.4902 21.03 10.6442C21.03 10.8652 21.004 11.0792 20.955 11.2852L20.959 11.2662L20.954 11.2702ZM18.254 9.72317H17.276L16.763 12.4722H17.619H17.671C17.921 12.4722 18.167 12.4492 18.405 12.4062L18.38 12.4102C18.584 12.3742 18.766 12.3012 18.926 12.1982L18.92 12.2012C19.056 12.0792 19.17 11.9382 19.259 11.7802L19.263 11.7722C19.366 11.5842 19.443 11.3652 19.482 11.1342L19.484 11.1222C19.515 10.9932 19.532 10.8442 19.532 10.6912C19.532 10.6172 19.528 10.5442 19.52 10.4732L19.521 10.4822C19.507 10.3242 19.449 10.1812 19.36 10.0632L19.361 10.0652C19.245 9.95717 19.106 9.87317 18.952 9.82217L18.944 9.82017C18.758 9.75817 18.545 9.72317 18.323 9.72317C18.3 9.72317 18.277 9.72317 18.255 9.72417H18.258L18.254 9.72317ZM7.064 9.72317H6.086L5.571 12.4722H6.429H6.481C6.731 12.4722 6.977 12.4492 7.215 12.4062L7.19 12.4102C7.394 12.3742 7.576 12.3012 7.736 12.1982L7.73 12.2012C7.866 12.0792 7.98 11.9382 8.069 11.7802L8.073 11.7722C8.176 11.5842 8.253 11.3652 8.292 11.1342L8.294 11.1222C8.325 10.9932 8.342 10.8442 8.342 10.6912C8.342 10.6172 8.338 10.5442 8.33 10.4732L8.331 10.4822C8.317 10.3242 8.259 10.1812 8.17 10.0632L8.171 10.0652C8.055 9.95717 7.916 9.87317 7.762 9.82217L7.754 9.82017C7.568 9.75817 7.355 9.72317 7.133 9.72317C7.11 9.72317 7.087 9.72317 7.065 9.72417H7.068L7.064 9.72317Z" fill="white"/>
</svg>
