<svg width="24" height="24" viewBox="0 0 24 24" fill="none" xmlns="http://www.w3.org/2000/svg">
<path d="M18.5 9.51008C17.7501 9.25179 17.0881 8.78737 16.59 8.17008C16.041 7.48231 15.3421 6.92922 14.5465 6.5531C13.7509 6.17699 12.8799 5.98783 12 6.00008C10.8164 5.91626 9.64458 6.28133 8.71801 7.02259C7.79143 7.76385 7.17804 8.82692 7 10.0001C7.35067 9.41333 7.87845 8.95295 8.50739 8.6852C9.13633 8.41745 9.834 8.35614 10.5 8.51008C11.2487 8.77589 11.9096 9.24301 12.41 9.86008C12.962 10.5424 13.6623 11.0897 14.4577 11.4606C15.2531 11.8314 16.1226 12.0159 17 12.0001C18.1836 12.0839 19.3554 11.7188 20.282 10.9776C21.2086 10.2363 21.822 9.17325 22 8.00008C21.6557 8.59385 21.1296 9.06118 20.4994 9.33308C19.8691 9.60498 19.1682 9.66703 18.5 9.51008ZM5.5 14.4901C6.24995 14.7484 6.91192 15.2128 7.41 15.8301C7.95895 16.5178 8.65794 17.0709 9.4535 17.4471C10.2491 17.8232 11.1201 18.0123 12 18.0001C13.1836 18.0839 14.3554 17.7188 15.282 16.9776C16.2086 16.2363 16.822 15.1732 17 14.0001C16.6493 14.5868 16.1215 15.0472 15.4926 15.315C14.8637 15.5827 14.166 15.644 13.5 15.4901C12.7513 15.2243 12.0904 14.7572 11.59 14.1401C11.0366 13.4595 10.336 12.9133 9.54091 12.5426C8.74587 12.172 7.8771 11.9865 7 12.0001C5.81637 11.9163 4.64458 12.2813 3.71801 13.0226C2.79143 13.7638 2.17804 14.8269 2 16.0001C2.34431 15.4063 2.87041 14.939 3.50063 14.6671C4.13086 14.3952 4.83181 14.3331 5.5 14.4901Z" fill="white"/>
</svg>
